<svg width="21" height="21" viewBox="0 0 21 21" fill="none" xmlns="http://www.w3.org/2000/svg">
<path d="M3.04102 6.48796C3.04102 6.04593 3.21661 5.62201 3.52917 5.30944C3.84173 4.99688 4.26565 4.82129 4.70768 4.82129H16.3743C16.8164 4.82129 17.2403 4.99688 17.5529 5.30944C17.8654 5.62201 18.041 6.04593 18.041 6.48796M3.04102 6.48796V14.8213C3.04102 15.2633 3.21661 15.6872 3.52917 15.9998C3.84173 16.3124 4.26565 16.488 4.70768 16.488H16.3743C16.8164 16.488 17.2403 16.3124 17.5529 15.9998C17.8654 15.6872 18.041 15.2633 18.041 14.8213V6.48796M3.04102 6.48796L10.541 11.488L18.041 6.48796" stroke="#9DA3AE" stroke-width="1.66667" stroke-linecap="round" stroke-linejoin="round"/>
</svg>
