<svg width="32" height="32" viewBox="0 0 32 32" fill="none" xmlns="http://www.w3.org/2000/svg">
<path d="M24 0H8C3.58172 0 0 3.58172 0 8V24C0 28.4183 3.58172 32 8 32H24C28.4183 32 32 28.4183 32 24V8C32 3.58172 28.4183 0 24 0Z" fill="white"/>
<path d="M9.08843 6.00773C9.07011 6.0146 9.03806 6.02604 9.01974 6.03291C9.00143 6.03978 8.97166 6.04894 8.95563 6.05352C8.88694 6.06726 8.72438 6.18174 8.62821 6.28478C8.54808 6.36949 8.51373 6.43131 8.47481 6.5664C8.44733 6.66028 8.41299 6.77018 8.40154 6.8091C8.38551 6.85719 8.37864 8.19892 8.37864 10.6649L8.38093 14.4497L8.25729 14.5779C8.09472 14.745 7.75815 15.132 7.63679 15.2877C6.9934 16.1303 6.50571 16.8881 6.12105 17.6414C6.01114 17.8567 5.98596 17.9276 6.00657 17.946C6.02259 17.9574 6.04091 17.9643 6.04549 17.9574C6.05236 17.9528 6.11876 17.994 6.19203 18.0513C6.26759 18.1085 6.40725 18.2138 6.50113 18.2848C6.595 18.3558 6.7507 18.4772 6.84458 18.5573C6.93845 18.6351 7.09415 18.7634 7.18802 18.8389C7.2819 18.9168 7.40554 19.0198 7.46278 19.0679C7.57268 19.164 8.41757 19.8761 8.70835 20.1211C8.80681 20.2035 8.91442 20.2951 8.94876 20.3272C8.98311 20.3592 9.0518 20.4142 9.09988 20.4531C9.15025 20.4898 9.26245 20.5836 9.35174 20.6592C9.60131 20.8744 10.2333 21.3942 10.5195 21.6208C10.8881 21.9139 11.2613 22.2162 11.3575 22.3032C11.4033 22.3421 11.4949 22.4199 11.5635 22.4726C11.7009 22.5802 12.0902 22.974 12.1795 23.0954C12.2115 23.1389 12.2802 23.2259 12.3329 23.29C12.3855 23.3541 12.5916 23.6083 12.7908 23.8532C13.2602 24.4325 13.2167 24.3776 13.4319 24.618C13.8349 25.0668 14.2768 25.4652 14.5927 25.6621C14.7462 25.7582 15.1995 25.9483 15.2201 25.9254C15.227 25.9185 15.2453 25.9254 15.2613 25.9391C15.3209 25.9872 15.7742 26.017 16.0375 25.9895C16.1703 25.9758 16.294 25.9529 16.31 25.9391C16.326 25.9254 16.3443 25.9185 16.3512 25.9254C16.3718 25.9483 16.8252 25.7582 16.9786 25.6621C17.2945 25.4652 17.7364 25.0668 18.1394 24.618C18.3546 24.3776 18.3111 24.4325 18.7805 23.8532C18.9797 23.6083 19.1858 23.3541 19.2384 23.29C19.2911 23.2259 19.3598 23.1389 19.3919 23.0954C19.4811 22.974 19.8704 22.5802 20.0078 22.4726C20.0765 22.4199 20.168 22.3421 20.2138 22.3032C20.31 22.2162 20.6832 21.9139 21.0518 21.6208C21.3381 21.3942 21.97 20.8744 22.2196 20.6592C22.3089 20.5836 22.4211 20.4898 22.4714 20.4531C22.5195 20.4142 22.5882 20.3592 22.6225 20.3272C22.6569 20.2951 22.7645 20.2035 22.863 20.1211C23.1537 19.8761 23.9986 19.164 24.1085 19.0679C24.1658 19.0198 24.2894 18.9168 24.3833 18.8389C24.4772 18.7634 24.6329 18.6351 24.7267 18.5573C24.8206 18.4772 24.9763 18.3558 25.0702 18.2848C25.1641 18.2138 25.3037 18.1085 25.3793 18.0513C25.4525 17.994 25.519 17.9528 25.5258 17.9574C25.5304 17.9643 25.5487 17.9574 25.5647 17.946C25.5854 17.9276 25.5602 17.8567 25.4503 17.6414C25.0656 16.8881 24.5779 16.1303 23.9345 15.2877C23.8132 15.132 23.4766 14.745 23.314 14.5779L23.1904 14.4497L23.1927 10.6649C23.1927 8.19892 23.1858 6.85719 23.1698 6.8091C23.1583 6.77018 23.124 6.66028 23.0965 6.5664C23.0576 6.43131 23.0232 6.36949 22.9431 6.28478C22.8469 6.18174 22.6844 6.06726 22.6157 6.05352C22.5996 6.04894 22.5653 6.03749 22.5401 6.02604C22.5149 6.0146 22.3867 6.00544 22.2539 6.00544C22.0181 6.00544 22.0089 6.00773 21.8189 6.1016C21.6197 6.19777 21.4571 6.33515 21.0198 6.77476C20.6122 7.18461 19.4674 8.45765 19.3071 8.67975C19.2797 8.71867 19.2453 8.75531 19.2339 8.76217C19.2224 8.76904 19.1743 8.83315 19.1263 8.90184C19.0805 8.97053 18.9408 9.15142 18.8217 9.30024C18.579 9.60477 18.318 9.96424 18.0478 10.3741C17.8555 10.6626 17.8624 10.658 17.7044 10.5916C17.67 10.5779 17.6242 10.5618 17.6059 10.5595C17.5876 10.5573 17.5258 10.5389 17.4685 10.516C17.3678 10.4794 16.9053 10.3718 16.7702 10.3535C16.0169 10.2527 15.5544 10.2527 14.8011 10.3535C14.666 10.3718 14.2035 10.4794 14.1028 10.516C14.0455 10.5389 13.9837 10.5573 13.9654 10.5595C13.9471 10.5618 13.9013 10.5779 13.8669 10.5916C13.7089 10.658 13.7158 10.6626 13.5235 10.3741C13.2533 9.96424 12.9923 9.60477 12.7496 9.30024C12.6305 9.15142 12.4908 8.97053 12.4451 8.90184C12.397 8.83315 12.3489 8.76904 12.3374 8.76217C12.326 8.75531 12.2917 8.71867 12.2642 8.67975C12.1039 8.45765 10.9591 7.18461 10.5515 6.77476C10.1142 6.33515 9.95163 6.19777 9.75243 6.1016C9.57384 6.01231 9.54636 6.00544 9.34029 6.00086C9.22123 5.99857 9.10675 6.00086 9.08843 6.00773ZM9.77075 7.4067C10.4508 8.08902 10.998 8.70722 11.7009 9.58874C12.239 10.2665 12.5092 10.6374 12.7267 10.9969C12.7496 11.0335 12.8183 11.148 12.8824 11.2487C12.9465 11.3495 13.0518 11.5281 13.1159 11.6426C13.1823 11.7593 13.2487 11.8555 13.2648 11.8555C13.3083 11.8555 13.5967 11.7547 13.7456 11.6861C13.8211 11.6517 13.9745 11.599 14.089 11.567C14.2035 11.5349 14.3134 11.5029 14.3317 11.4937C14.35 11.4869 14.3775 11.4777 14.389 11.4777C14.4027 11.4754 14.4279 11.4662 14.4462 11.4594C14.4645 11.4502 14.595 11.425 14.737 11.3998C15.4605 11.2716 16.1108 11.2716 16.8343 11.3998C16.9763 11.425 17.1068 11.4502 17.1251 11.4594C17.1434 11.4662 17.1709 11.4754 17.1823 11.4777C17.1961 11.4777 17.2213 11.4869 17.2396 11.4937C17.2579 11.5029 17.3678 11.5349 17.4823 11.567C17.5968 11.599 17.7502 11.6517 17.8257 11.6861C17.9746 11.7547 18.2631 11.8555 18.3066 11.8555C18.3226 11.8555 18.389 11.7593 18.4554 11.6426C18.5195 11.5281 18.6248 11.3495 18.6889 11.2487C18.753 11.148 18.8217 11.0335 18.8446 10.9969C18.9202 10.8755 19.1881 10.4748 19.3094 10.31C19.504 10.0421 20.3008 9.04838 20.5939 8.70722C21.0839 8.1371 22.0593 7.11592 22.1142 7.11592C22.1257 7.11592 22.1692 7.19606 22.2081 7.29222C22.3547 7.64483 22.2928 7.79365 21.5212 8.93619C21.4182 9.0873 21.2945 9.27277 21.2442 9.34832C21.1251 9.52921 20.8893 9.87952 20.745 10.0925C20.5275 10.4107 20.0971 11.0656 20.0833 11.0999C20.0765 11.1182 20.065 11.1388 20.0558 11.1457C20.0307 11.1663 19.8475 11.4937 19.7055 11.7708C19.6277 11.9288 19.5636 12.0822 19.559 12.1394C19.5475 12.231 19.5521 12.2424 19.6231 12.2928C19.717 12.3569 20.2802 12.8561 20.4107 12.9866C20.4611 13.0392 20.6214 13.1949 20.7656 13.3346C21.132 13.6895 21.3999 13.9688 21.8761 14.4977C22.405 15.0816 22.9202 15.6792 23.0347 15.8395C23.0828 15.9082 23.2018 16.0639 23.2957 16.1829C23.3896 16.302 23.4674 16.4096 23.4674 16.4188C23.4674 16.4348 23.488 16.4623 23.5521 16.5355C23.5659 16.5516 23.6117 16.6202 23.6529 16.6889C23.6941 16.7576 23.7559 16.8492 23.788 16.8927C23.8223 16.9362 23.8773 17.0186 23.9116 17.0759C23.946 17.1331 24.0192 17.2499 24.0742 17.3392C24.2551 17.6254 24.2757 17.6735 24.2413 17.7055C24.2253 17.7216 24.0513 17.8658 23.8567 18.0238C23.662 18.1841 23.4743 18.3375 23.4422 18.365C23.4102 18.3924 23.3529 18.4359 23.3186 18.4611C23.282 18.4863 23.2201 18.5344 23.1835 18.5687C23.1446 18.6031 22.982 18.7428 22.8195 18.8778C22.6592 19.0129 22.4646 19.1801 22.3844 19.2488C22.2562 19.3587 22.1921 19.4113 21.9357 19.6128C21.8944 19.6472 21.7639 19.7525 21.6472 19.8509C21.5304 19.9471 21.3129 20.1234 21.164 20.2425C21.0129 20.3638 20.871 20.4806 20.8458 20.5035C20.8229 20.5264 20.7542 20.5813 20.6969 20.6248C20.5733 20.7187 20.5756 20.7164 20.3421 20.9179C20.2413 21.0026 20.0467 21.1629 19.907 21.2728C19.4216 21.6552 18.8217 22.2184 18.6546 22.452C18.6157 22.5046 18.5744 22.5481 18.5676 22.5481C18.5584 22.5481 18.5241 22.5871 18.4943 22.6352C18.3798 22.8069 17.9425 23.3404 17.7593 23.5327C17.6563 23.6403 17.5143 23.7937 17.4456 23.8739C17.2579 24.0891 16.9854 24.3638 16.9717 24.3501C16.9671 24.3432 16.974 24.3135 16.99 24.2837C17.0106 24.2494 17.0198 24.1417 17.0221 23.9792C17.0221 23.7685 17.0129 23.7021 16.9671 23.5739C16.8916 23.3656 16.7817 23.2465 16.6168 23.1893C16.4977 23.148 16.4222 23.1435 15.7857 23.1435C15.1491 23.1435 15.0736 23.148 14.9545 23.1893C14.7897 23.2465 14.6798 23.3656 14.6042 23.5739C14.5584 23.7021 14.5492 23.7685 14.5492 23.9792C14.5515 24.1417 14.5607 24.2494 14.5813 24.2837C14.5973 24.3135 14.6042 24.3432 14.5996 24.3501C14.5859 24.3638 14.3134 24.0891 14.1257 23.8739C14.057 23.7937 13.915 23.6403 13.812 23.5327C13.6288 23.3404 13.1915 22.8069 13.077 22.6352C13.0472 22.5871 13.0129 22.5481 13.0037 22.5481C12.9969 22.5481 12.9556 22.5046 12.9167 22.452C12.7496 22.2184 12.1497 21.6552 11.6643 21.2728C11.5269 21.1629 11.33 21.0026 11.2293 20.9179C10.9957 20.7164 10.998 20.7187 10.8744 20.6248C10.8171 20.5813 10.7484 20.5264 10.7255 20.5035C10.7003 20.4806 10.5584 20.3638 10.4073 20.2425C10.2584 20.1234 10.0409 19.9471 9.92415 19.8509C9.80738 19.7525 9.67687 19.6472 9.63566 19.6128C9.37922 19.4113 9.31511 19.3587 9.18689 19.2488C9.10675 19.1801 8.91213 19.0129 8.75185 18.8778C8.58929 18.7428 8.42672 18.6031 8.3878 18.5687C8.35117 18.5344 8.28934 18.4863 8.25271 18.4611C8.21837 18.4359 8.16112 18.3924 8.12907 18.365C8.09701 18.3375 7.90926 18.1841 7.71464 18.0238C7.52002 17.8658 7.34601 17.7216 7.32998 17.7055C7.29564 17.6735 7.31624 17.6254 7.49713 17.3392C7.55208 17.2499 7.62535 17.1331 7.65969 17.0759C7.69404 17.0186 7.74899 16.9362 7.78333 16.8927C7.81539 16.8492 7.87721 16.7576 7.91842 16.6912C7.9894 16.5722 8.01001 16.5424 8.07641 16.4691C8.09015 16.4531 8.10388 16.4302 8.10388 16.4188C8.10388 16.4096 8.18173 16.302 8.27561 16.1829C8.36948 16.0639 8.48854 15.9082 8.53663 15.8395C8.65111 15.6792 9.16628 15.0816 9.69519 14.4977C10.1714 13.9688 10.4393 13.6895 10.8057 13.3346C10.9499 13.1949 11.1102 13.0392 11.1606 12.9866C11.2911 12.8561 11.8543 12.3569 11.9482 12.2928C12.0192 12.2424 12.0238 12.231 12.0123 12.1394C12.0077 12.0822 11.9436 11.9288 11.8658 11.7708C11.7238 11.4937 11.5406 11.1663 11.5155 11.1457C11.5063 11.1388 11.4949 11.1182 11.488 11.0999C11.4742 11.0656 11.0438 10.4107 10.8263 10.0925C10.682 9.87952 10.4462 9.52921 10.3271 9.34832C10.2768 9.27277 10.1531 9.0873 10.0501 8.93619C9.4708 8.07757 9.32656 7.81884 9.30366 7.60361C9.28992 7.48684 9.29908 7.44792 9.36319 7.29222C9.40211 7.19606 9.44562 7.11592 9.45707 7.11592C9.46851 7.11592 9.61047 7.24643 9.77075 7.4067Z" fill="black"/>
<path d="M12.065 16.5561C12.0581 16.563 12.01 16.5767 11.9619 16.5836C11.8337 16.5996 11.8017 16.6065 11.607 16.6615C11.3643 16.7302 11.3254 16.7485 11.0758 16.8881C10.8538 17.0118 10.8538 17.0141 10.9041 17.053C10.9522 17.0896 11.243 17.2865 12.4313 18.0879C12.7404 18.294 13.1411 18.5664 13.3243 18.6901C13.5075 18.8137 13.828 19.0312 14.0387 19.1755C14.2493 19.3175 14.4302 19.4342 14.4371 19.4342C14.4691 19.4342 14.4256 18.8916 14.3798 18.7244C14.2333 18.1818 14.0387 17.7697 13.741 17.3804C13.5876 17.1789 13.306 16.9019 13.1617 16.8103C13.0449 16.737 12.7038 16.5905 12.6878 16.6065C12.6809 16.6134 12.6626 16.6065 12.6465 16.5928C12.6168 16.5676 12.0856 16.5355 12.065 16.5561ZM13.18 17.3071C13.5143 17.4697 13.4319 17.9895 13.0633 18.0307C12.6832 18.0742 12.4771 17.6346 12.7542 17.369C12.8801 17.2499 13.0198 17.2293 13.18 17.3071Z" fill="black"/>
<path d="M19.0484 16.563C19.0049 16.5699 18.9522 16.5813 18.9339 16.5882C18.9156 16.5951 18.8927 16.6019 18.8835 16.5996C18.8561 16.5928 18.508 16.7485 18.4096 16.8103C18.2653 16.9019 17.9837 17.1789 17.8303 17.3804C17.5327 17.7697 17.338 18.1818 17.1915 18.7244C17.1457 18.8916 17.1022 19.4342 17.1343 19.4342C17.1411 19.4342 17.322 19.3175 17.5327 19.1755C17.7433 19.0312 18.0639 18.8137 18.247 18.6901C18.4302 18.5664 18.8309 18.294 19.14 18.0879C20.3283 17.2865 20.6191 17.0896 20.6672 17.053C20.7176 17.0141 20.7176 17.0118 20.4955 16.8881C20.2459 16.7485 20.207 16.7302 19.9643 16.6615C19.7948 16.6157 19.7719 16.6088 19.6323 16.5813C19.5384 16.563 19.1469 16.5516 19.0484 16.563ZM18.6592 17.2728C18.7004 17.282 18.7714 17.3255 18.8194 17.3713C19.0965 17.6346 18.8881 18.0742 18.508 18.0307C18.1417 17.9895 18.057 17.472 18.389 17.3071C18.4943 17.2568 18.5401 17.2499 18.6592 17.2728Z" fill="black"/>
</svg>
