<svg width="40" height="40" viewBox="0 0 40 40" fill="none" xmlns="http://www.w3.org/2000/svg">
<g clip-path="url(#clip0_85_3232)">
<path d="M30 0H10C4.47715 0 0 4.47715 0 10V30C0 35.5229 4.47715 40 10 40H30C35.5229 40 40 35.5229 40 30V10C40 4.47715 35.5229 0 30 0Z" fill="#212936"/>
<path d="M11.3605 7.50966C11.3376 7.51825 11.2976 7.53255 11.2747 7.54114C11.2518 7.54972 11.2146 7.56117 11.1945 7.5669C11.1087 7.58407 10.9055 7.72717 10.7853 7.85597C10.6851 7.96186 10.6422 8.03914 10.5935 8.208C10.5592 8.32535 10.5162 8.46272 10.5019 8.51137C10.4819 8.57149 10.4733 10.2486 10.4733 13.3311L10.4762 18.0621L10.3216 18.2224C10.1184 18.4312 9.69768 18.915 9.54598 19.1096C8.74175 20.1629 8.13213 21.1101 7.65131 22.0517C7.51392 22.3209 7.48245 22.4095 7.50821 22.4325C7.52823 22.4467 7.55113 22.4554 7.55686 22.4467C7.56545 22.441 7.64845 22.4925 7.74003 22.5641C7.83448 22.6356 8.00906 22.7672 8.12641 22.856C8.24375 22.9447 8.43837 23.0965 8.55572 23.1966C8.67306 23.2939 8.86768 23.4542 8.98502 23.5486C9.10237 23.646 9.25692 23.7747 9.32847 23.8349C9.46585 23.955 10.522 24.8451 10.8854 25.1514C11.0085 25.2544 11.143 25.3689 11.1859 25.409C11.2289 25.449 11.3147 25.5177 11.3748 25.5664C11.4378 25.6122 11.5781 25.7295 11.6897 25.824C12.0016 26.093 12.7916 26.7427 13.1494 27.026C13.6101 27.3924 14.0766 27.7702 14.1969 27.879C14.2541 27.9276 14.3686 28.0249 14.4544 28.0907C14.6261 28.2252 15.1127 28.7175 15.2244 28.8692C15.2644 28.9236 15.3502 29.0324 15.4161 29.1125C15.4819 29.1926 15.7395 29.5104 15.9885 29.8165C16.5752 30.5406 16.5209 30.472 16.7899 30.7725C17.2936 31.3335 17.846 31.8315 18.2409 32.0776C18.4327 32.1977 18.9994 32.4354 19.0251 32.4067C19.0337 32.3981 19.0566 32.4067 19.0766 32.4239C19.1511 32.484 19.7177 32.5212 20.0469 32.4869C20.2129 32.4697 20.3675 32.4411 20.3875 32.4239C20.4075 32.4067 20.4304 32.3981 20.439 32.4067C20.4647 32.4354 21.0315 32.1977 21.2232 32.0776C21.6181 31.8315 22.1705 31.3335 22.6742 30.7725C22.9432 30.472 22.8889 30.5406 23.4756 29.8165C23.7246 29.5104 23.9822 29.1926 24.048 29.1125C24.1139 29.0324 24.1997 28.9236 24.2399 28.8692C24.3514 28.7175 24.838 28.2252 25.0097 28.0907C25.0956 28.0249 25.21 27.9276 25.2672 27.879C25.3875 27.7702 25.854 27.3924 26.3147 27.026C26.6726 26.7427 27.4625 26.093 27.7745 25.824C27.8861 25.7295 28.0264 25.6122 28.0892 25.5664C28.1494 25.5177 28.2352 25.449 28.2781 25.409C28.3211 25.3689 28.4556 25.2544 28.5787 25.1514C28.9421 24.8451 29.9982 23.955 30.1356 23.8349C30.2072 23.7747 30.3617 23.646 30.4791 23.5486C30.5965 23.4542 30.7911 23.2939 30.9084 23.1966C31.0257 23.0965 31.2204 22.9447 31.3377 22.856C31.4551 22.7672 31.6296 22.6356 31.7241 22.5641C31.8156 22.4925 31.8986 22.441 31.9072 22.4467C31.913 22.4554 31.9359 22.4467 31.9559 22.4325C31.9817 22.4095 31.9502 22.3209 31.8129 22.0517C31.332 21.1101 30.7224 20.1629 29.9181 19.1096C29.7665 18.915 29.3457 18.4312 29.1425 18.2224L28.988 18.0621L28.9909 13.3311C28.9909 10.2486 28.9822 8.57149 28.9622 8.51137C28.9479 8.46272 28.905 8.32535 28.8706 8.208C28.822 8.03914 28.779 7.96186 28.6789 7.85597C28.5586 7.72717 28.3555 7.58407 28.2696 7.5669C28.2495 7.56117 28.2066 7.54686 28.1751 7.53255C28.1436 7.51825 27.9834 7.5068 27.8174 7.5068C27.5226 7.5068 27.5111 7.50966 27.2736 7.627C27.0246 7.74721 26.8214 7.91894 26.2747 8.46845C25.7652 8.98076 24.3342 10.5721 24.1339 10.8497C24.0996 10.8983 24.0566 10.9441 24.0424 10.9527C24.028 10.9613 23.9679 11.0414 23.9079 11.1273C23.8506 11.2132 23.676 11.4393 23.5271 11.6253C23.2237 12.006 22.8975 12.4553 22.5597 12.9676C22.3194 13.3282 22.328 13.3225 22.1305 13.2395C22.0875 13.2224 22.0302 13.2022 22.0074 13.1994C21.9845 13.1966 21.9072 13.1736 21.8356 13.145C21.7097 13.0992 21.1316 12.9647 20.9627 12.9419C20.0211 12.8159 19.443 12.8159 18.5014 12.9419C18.3325 12.9647 17.7544 13.0992 17.6285 13.145C17.5569 13.1736 17.4796 13.1966 17.4567 13.1994C17.4339 13.2022 17.3766 13.2224 17.3336 13.2395C17.1361 13.3225 17.1447 13.3282 16.9044 12.9676C16.5666 12.4553 16.2404 12.006 15.937 11.6253C15.7881 11.4393 15.6135 11.2132 15.5564 11.1273C15.4962 11.0414 15.4361 10.9613 15.4217 10.9527C15.4075 10.9441 15.3646 10.8983 15.3302 10.8497C15.1299 10.5721 13.6989 8.98076 13.1894 8.46845C12.6427 7.91894 12.4395 7.74721 12.1905 7.627C11.9673 7.51539 11.9329 7.5068 11.6754 7.50107C11.5265 7.49821 11.3834 7.50107 11.3605 7.50966ZM12.2134 9.25837C13.0635 10.1113 13.7475 10.884 14.6261 11.9859C15.2987 12.8331 15.6365 13.2967 15.9084 13.7461C15.937 13.7919 16.0229 13.935 16.103 14.0609C16.1831 14.1869 16.3147 14.4101 16.3949 14.5532C16.4779 14.6991 16.5609 14.8194 16.581 14.8194C16.6354 14.8194 16.9959 14.6934 17.182 14.6076C17.2764 14.5646 17.4681 14.4987 17.6112 14.4587C17.7544 14.4186 17.8917 14.3786 17.9146 14.3671C17.9375 14.3586 17.9719 14.3471 17.9862 14.3471C18.0034 14.3442 18.0349 14.3327 18.0577 14.3242C18.0806 14.3127 18.2437 14.2812 18.4212 14.2497C19.3256 14.0895 20.1385 14.0895 21.0429 14.2497C21.2204 14.2812 21.3835 14.3127 21.4064 14.3242C21.4292 14.3327 21.4636 14.3442 21.4779 14.3471C21.4951 14.3471 21.5266 14.3586 21.5495 14.3671C21.5724 14.3786 21.7097 14.4186 21.8529 14.4587C21.996 14.4987 22.1877 14.5646 22.2821 14.6076C22.4682 14.6934 22.8289 14.8194 22.8832 14.8194C22.9032 14.8194 22.9862 14.6991 23.0692 14.5532C23.1494 14.4101 23.281 14.1869 23.3611 14.0609C23.4412 13.935 23.5271 13.7919 23.5557 13.7461C23.6502 13.5944 23.9851 13.0935 24.1367 12.8875C24.38 12.5526 25.376 11.3105 25.7424 10.884C26.3549 10.1714 27.5741 8.8949 27.6427 8.8949C27.6571 8.8949 27.7115 8.99507 27.7601 9.11527C27.9434 9.55604 27.866 9.74206 26.9015 11.1702C26.7727 11.3591 26.6181 11.591 26.5552 11.6854C26.4064 11.9115 26.1116 12.3494 25.9312 12.6156C25.6594 13.0134 25.1214 13.832 25.1041 13.8749C25.0956 13.8977 25.0812 13.9235 25.0697 13.9321C25.0384 13.9579 24.8094 14.3671 24.6319 14.7135C24.5346 14.911 24.4545 15.1027 24.4487 15.1742C24.4344 15.2887 24.4401 15.303 24.5289 15.366C24.6462 15.4461 25.3502 16.0701 25.5134 16.2332C25.5764 16.299 25.7767 16.4936 25.957 16.6682C26.415 17.1119 26.7499 17.461 27.3451 18.1221C28.0062 18.852 28.6502 19.599 28.7934 19.7994C28.8535 19.8852 29.0022 20.0799 29.1196 20.2286C29.237 20.3775 29.3342 20.512 29.3342 20.5235C29.3342 20.5435 29.36 20.5779 29.4401 20.6694C29.4574 20.6895 29.5146 20.7752 29.5661 20.8611C29.6176 20.947 29.6949 21.0615 29.735 21.1159C29.7779 21.1702 29.8466 21.2732 29.8895 21.3449C29.9325 21.4164 30.024 21.5624 30.0927 21.674C30.3189 22.0317 30.3446 22.0919 30.3016 22.1319C30.2816 22.152 30.0641 22.3322 29.8209 22.5297C29.5775 22.7301 29.3429 22.9219 29.3027 22.9562C29.2627 22.9905 29.1911 23.0449 29.1482 23.0764C29.1025 23.1079 29.0251 23.168 28.9794 23.2109C28.9307 23.2539 28.7275 23.4285 28.5244 23.5972C28.324 23.7661 28.0807 23.9751 27.9805 24.061C27.8202 24.1984 27.7401 24.2641 27.4196 24.516C27.368 24.559 27.2049 24.6906 27.059 24.8136C26.913 24.9339 26.6411 25.1542 26.455 25.3031C26.2661 25.4547 26.0887 25.6007 26.0572 25.6294C26.0286 25.658 25.9427 25.7266 25.8711 25.781C25.7166 25.8984 25.7195 25.8955 25.4276 26.1474C25.3016 26.2532 25.0584 26.4536 24.8837 26.591C24.277 27.069 23.5271 27.773 23.3182 28.065C23.2696 28.1307 23.218 28.1851 23.2095 28.1851C23.198 28.1851 23.1551 28.2339 23.1179 28.294C22.9747 28.5086 22.4281 29.1755 22.1991 29.4159C22.0704 29.5504 21.8929 29.7421 21.807 29.8424C21.5724 30.1114 21.2317 30.4547 21.2146 30.4376C21.2089 30.429 21.2175 30.3919 21.2375 30.3546C21.2632 30.3117 21.2747 30.1771 21.2776 29.974C21.2776 29.7106 21.2661 29.6276 21.2089 29.4674C21.1145 29.207 20.9771 29.0581 20.771 28.9866C20.6221 28.935 20.5277 28.9294 19.7321 28.9294C18.9364 28.9294 18.842 28.935 18.6931 28.9866C18.4871 29.0581 18.3497 29.207 18.2552 29.4674C18.198 29.6276 18.1865 29.7106 18.1865 29.974C18.1894 30.1771 18.2009 30.3117 18.2266 30.3546C18.2466 30.3919 18.2552 30.429 18.2495 30.4376C18.2324 30.4547 17.8917 30.1114 17.6571 29.8424C17.5712 29.7421 17.3937 29.5504 17.265 29.4159C17.036 29.1755 16.4894 28.5086 16.3462 28.294C16.309 28.2339 16.2661 28.1851 16.2546 28.1851C16.2461 28.1851 16.1945 28.1307 16.1459 28.065C15.937 27.773 15.1871 27.069 14.5804 26.591C14.4086 26.4536 14.1625 26.2532 14.0366 26.1474C13.7446 25.8955 13.7475 25.8984 13.593 25.781C13.5214 25.7266 13.4355 25.658 13.4069 25.6294C13.3754 25.6007 13.198 25.4547 13.0091 25.3031C12.823 25.1542 12.5511 24.9339 12.4052 24.8136C12.2592 24.6906 12.0961 24.559 12.0446 24.516C11.724 24.2641 11.6439 24.1984 11.4836 24.061C11.3834 23.9751 11.1402 23.7661 10.9398 23.5972C10.7366 23.4285 10.5334 23.2539 10.4847 23.2109C10.439 23.168 10.3617 23.1079 10.3159 23.0764C10.273 23.0449 10.2014 22.9905 10.1613 22.9562C10.1213 22.9219 9.88657 22.7301 9.6433 22.5297C9.40002 22.3322 9.18251 22.152 9.16247 22.1319C9.11955 22.0919 9.1453 22.0317 9.37141 21.674C9.4401 21.5624 9.53168 21.4164 9.57461 21.3449C9.61755 21.2732 9.68623 21.1702 9.72916 21.1159C9.76923 21.0615 9.84651 20.947 9.89802 20.864C9.98675 20.7152 10.0125 20.678 10.0955 20.5864C10.1127 20.5664 10.1298 20.5377 10.1298 20.5235C10.1298 20.512 10.2272 20.3775 10.3445 20.2286C10.4618 20.0799 10.6107 19.8852 10.6708 19.7994C10.8139 19.599 11.4578 18.852 12.119 18.1221C12.7142 17.461 13.0491 17.1119 13.5071 16.6682C13.6874 16.4936 13.8877 16.299 13.9507 16.2332C14.1139 16.0701 14.8179 15.4461 14.9352 15.366C15.024 15.303 15.0297 15.2887 15.0154 15.1742C15.0096 15.1027 14.9295 14.911 14.8322 14.7135C14.6547 14.3671 14.4257 13.9579 14.3944 13.9321C14.3829 13.9235 14.3686 13.8977 14.36 13.8749C14.3427 13.832 13.8047 13.0134 13.5329 12.6156C13.3525 12.3494 13.0577 11.9115 12.9089 11.6854C12.846 11.591 12.6914 11.3591 12.5626 11.1702C11.8385 10.097 11.6582 9.77355 11.6296 9.50451C11.6124 9.35855 11.6238 9.3099 11.704 9.11527C11.7526 8.99507 11.807 8.8949 11.8213 8.8949C11.8356 8.8949 12.0131 9.05804 12.2134 9.25837Z" fill="white"/>
<path d="M15.0813 20.6947C15.0727 20.7034 15.0126 20.7205 14.9525 20.7291C14.7922 20.7491 14.7522 20.7577 14.5088 20.8265C14.2055 20.9124 14.1568 20.9352 13.8448 21.1097C13.5673 21.2644 13.5673 21.2672 13.6302 21.3159C13.6903 21.3616 14.0538 21.6077 15.5392 22.6095C15.9256 22.8671 16.4265 23.2076 16.6555 23.3622C16.8845 23.5167 17.2851 23.7886 17.5485 23.969C17.8117 24.1465 18.0378 24.2924 18.0463 24.2924C18.0865 24.2924 18.0321 23.6141 17.9748 23.4051C17.7917 22.7269 17.5485 22.2117 17.1763 21.7251C16.9846 21.4732 16.6326 21.127 16.4522 21.0125C16.3062 20.9209 15.8798 20.7377 15.8598 20.7577C15.8512 20.7664 15.8283 20.7577 15.8082 20.7406C15.7711 20.7091 15.1071 20.669 15.0813 20.6947ZM16.4751 21.6335C16.893 21.8367 16.79 22.4865 16.3292 22.538C15.8541 22.5924 15.5965 22.0429 15.9428 21.7109C16.1002 21.562 16.2748 21.5362 16.4751 21.6335Z" fill="white"/>
<path d="M23.8103 20.7039C23.7559 20.7126 23.69 20.7268 23.6671 20.7354C23.6443 20.7441 23.6156 20.7526 23.6041 20.7497C23.5699 20.7412 23.1348 20.9358 23.0118 21.0131C22.8314 21.1276 22.4794 21.4738 22.2876 21.7257C21.9156 22.2123 21.6723 22.7274 21.4891 23.4057C21.4319 23.6147 21.3775 24.2929 21.4176 24.2929C21.4261 24.2929 21.6523 24.1471 21.9156 23.9696C22.1789 23.7892 22.5796 23.5173 22.8085 23.3628C23.0375 23.2082 23.5384 22.8677 23.9248 22.6101C25.4101 21.6083 25.7736 21.3622 25.8338 21.3164C25.8968 21.2678 25.8968 21.2649 25.6191 21.1103C25.3071 20.9358 25.2585 20.9129 24.9551 20.8271C24.7433 20.7698 24.7146 20.7612 24.5401 20.7268C24.4228 20.7039 23.9334 20.6897 23.8103 20.7039ZM23.3238 21.5912C23.3753 21.6027 23.464 21.6571 23.524 21.7143C23.8704 22.0434 23.6099 22.5929 23.1348 22.5386C22.6769 22.4871 22.571 21.8402 22.986 21.6341C23.1176 21.5712 23.1749 21.5626 23.3238 21.5912Z" fill="white"/>
</g>
<defs>
<clipPath id="clip0_85_3232">
<rect width="40" height="40" fill="white"/>
</clipPath>
</defs>
</svg>
