<?xml version="1.0" encoding="UTF-8"?>
<svg id="Layer_2" xmlns="http://www.w3.org/2000/svg" xmlns:xlink="http://www.w3.org/1999/xlink" viewBox="0 0 40 40">
  <defs>
    <style>
      .cls-1 {
        fill: url(#radial-gradient);
      }

      .cls-2 {
        fill: #2b75a3;
      }

      .cls-3 {
        fill: #fff;
      }

      .cls-4 {
        fill: #e7edf2;
      }
    </style>
    <radialGradient id="radial-gradient" cx="20" cy="20" fx="20" fy="20" r="20" gradientUnits="userSpaceOnUse">
      <stop offset="0" stop-color="#094068"/>
      <stop offset="1" stop-color="#07263a"/>
    </radialGradient>
  </defs>
  <g id="Objects">
    <g>
      <rect class="cls-1" width="40" height="40" rx="10.01" ry="10.01"/>
      <g>
        <circle class="cls-3" cx="20" cy="20" r="10.5" transform="translate(-5.66 31.9) rotate(-69.87)"/>
        <path class="cls-4" d="M18.89,16.38c0,1.01-.82,1.83-1.83,1.83s-1.83-.82-1.83-1.83.82-1.83,1.83-1.83,1.83.82,1.83,1.83Z"/>
        <path class="cls-4" d="M22.81,24.83c0,1.09-.89,1.98-1.98,1.98s-1.98-.89-1.98-1.98.89-1.98,1.98-1.98,1.98.89,1.98,1.98Z"/>
        <path class="cls-4" d="M25.07,16.15c0,.64-.52,1.15-1.15,1.15s-1.15-.52-1.15-1.15.52-1.15,1.15-1.15,1.15.52,1.15,1.15Z"/>
        <path class="cls-4" d="M15.5,24.37c0,.64-.52,1.15-1.15,1.15s-1.15-.52-1.15-1.15.52-1.15,1.15-1.15,1.15.52,1.15,1.15Z"/>
        <path class="cls-4" d="M26.43,23.17c0,.43-.35.78-.78.78s-.78-.35-.78-.78.35-.78.78-.78.78.35.78.78Z"/>
      </g>
      <path class="cls-2" d="M12.87,18.93c-.84,0-1.53-.25-1.53-.57s.54-.57,1.21-.57,1.21-.3,1.21-.66-1.47-.66-3.26-.66-3.26.28-3.26.62-.54.62-1.21.62-1.21.27-1.21.6-.21.6-.47.6-.47.3-.47.66,2.37.66,5.26.66,5.26-.3,5.26-.66-.69-.66-1.53-.66Z"/>
      <path class="cls-2" d="M37.74,26.07c0-.36-.94-.66-2.09-.66s-2.09-.24-2.09-.53.35-.53.77-.53.77-.3.77-.66-1.79-.66-3.98-.66-3.98.3-3.98.66.81.66,1.81.66,1.81.24,1.81.53-1.25.53-2.77.53-2.77.26-2.77.58-.34.58-.75.58-.75.3-.75.66,1.26.66,2.79.66,2.79-.26,2.79-.58,1.9-.58,4.22-.58,4.22-.3,4.22-.66Z"/>
    </g>
  </g>
</svg>