<svg width="32" height="32" viewBox="0 0 32 32" fill="none" xmlns="http://www.w3.org/2000/svg">
<g clip-path="url(#clip0_100_3292)">
<path d="M24 0H8C3.58172 0 0 3.58172 0 8V24C0 28.4183 3.58172 32 8 32H24C28.4183 32 32 28.4183 32 24V8C32 3.58172 28.4183 0 24 0Z" fill="#FA7B40"/>
<path d="M23.3186 11.0913V24.7927H21.2666L11.2845 13.7632V22.0781L14.5762 23.211L13.8067 24.7713H7.24461V23.4033L9.25386 21.672V10.8562L6.85986 9.48822L7.62936 7.94922H11.541L21.2666 18.6581V10.6211L18.0176 9.48822L18.7871 7.94922H25.3492V9.33859L23.3186 11.0913Z" fill="white"/>
</g>
<defs>
<clipPath id="clip0_100_3292">
<rect width="32" height="32" fill="white"/>
</clipPath>
</defs>
</svg>
