<svg width="32" height="32" viewBox="0 0 32 32" fill="none" xmlns="http://www.w3.org/2000/svg">
<g clip-path="url(#clip0_20_1381)">
<path d="M24 0H8C3.58172 0 0 3.58172 0 8V24C0 28.4183 3.58172 32 8 32H24C28.4183 32 32 28.4183 32 24V8C32 3.58172 28.4183 0 24 0Z" fill="#1347FF"/>
<path fill-rule="evenodd" clip-rule="evenodd" d="M2.60227 13C2.54579 13 2.5 13.0456 2.5 13.1019V16.1574C2.5 16.2137 2.54579 16.2593 2.60227 16.2593H10.5795C10.636 16.2593 10.6818 16.2137 10.6818 16.1574V13.1019C10.6818 13.0456 10.636 13 10.5795 13H2.60227ZM9.60795 15.2407C9.6362 15.2407 9.65909 15.2179 9.65909 15.1898V14.0694C9.65909 14.0413 9.6362 14.0185 9.60795 14.0185H3.57386C3.54562 14.0185 3.52273 14.0413 3.52273 14.0694V15.1898C3.52273 15.2179 3.54562 15.2407 3.57386 15.2407H9.60795Z" fill="white"/>
<path d="M3.52273 17.5833C3.52273 17.5271 3.47694 17.4815 3.42045 17.4815H2.60227C2.54579 17.4815 2.5 17.5271 2.5 17.5833V18.3981C2.5 18.4544 2.54579 18.5 2.60227 18.5H3.42045C3.47694 18.5 3.52273 18.4544 3.52273 18.3981V17.5833Z" fill="white"/>
<path d="M22.3409 17.5833C22.3409 17.5271 22.2951 17.4815 22.2386 17.4815H21.4205C21.364 17.4815 21.3182 17.5271 21.3182 17.5833V18.3981C21.3182 18.4544 21.364 18.5 21.4205 18.5H22.2386C22.2951 18.5 22.3409 18.4544 22.3409 18.3981V17.5833Z" fill="white"/>
<path d="M11.9091 17.5833C11.9091 17.5271 11.9549 17.4815 12.0114 17.4815H19.9886C20.0451 17.4815 20.0909 17.5271 20.0909 17.5833V18.3981C20.0909 18.4544 20.0451 18.5 19.9886 18.5H12.0114C11.9549 18.5 11.9091 18.4544 11.9091 18.3981V17.5833Z" fill="white"/>
<path fill-rule="evenodd" clip-rule="evenodd" d="M21.3182 13.1019C21.3182 13.0456 21.364 13 21.4205 13H29.3977C29.4542 13 29.5 13.0456 29.5 13.1019V16.1574C29.5 16.2137 29.4542 16.2593 29.3977 16.2593H21.4205C21.364 16.2593 21.3182 16.2137 21.3182 16.1574V13.1019ZM28.4261 14.0185C28.4544 14.0185 28.4773 14.0413 28.4773 14.0694V15.1898C28.4773 15.2179 28.4544 15.2407 28.4261 15.2407H22.392C22.3638 15.2407 22.3409 15.2179 22.3409 15.1898V14.0694C22.3409 14.0413 22.3638 14.0185 22.392 14.0185H28.4261Z" fill="white"/>
<path d="M12.0114 13C11.9549 13 11.9091 13.0456 11.9091 13.1019V13.9167C11.9091 13.9729 11.9549 14.0185 12.0114 14.0185H19.017C19.0453 14.0185 19.0682 14.0413 19.0682 14.0694V15.1898C19.0682 15.2179 19.0453 15.2407 19.017 15.2407H12.0114C11.9549 15.2407 11.9091 15.2863 11.9091 15.3426V16.1574C11.9091 16.2137 11.9549 16.2593 12.0114 16.2593H19.9886C20.0451 16.2593 20.0909 16.2137 20.0909 16.1574V13.1019C20.0909 13.0456 20.0451 13 19.9886 13H12.0114Z" fill="white"/>
</g>
<defs>
<clipPath id="clip0_20_1381">
<rect width="32" height="32" fill="white"/>
</clipPath>
</defs>
</svg>
