<?xml version="1.0" encoding="UTF-8"?>
<svg id="Layer_2" xmlns="http://www.w3.org/2000/svg" xmlns:xlink="http://www.w3.org/1999/xlink" viewBox="0 0 40 40">
  <defs>
    <style>
      .cls-1 {
        fill: #7f3f0a;
      }

      .cls-2 {
        fill: url(#linear-gradient-2);
      }

      .cls-3 {
        fill: url(#linear-gradient);
      }

      .cls-4 {
        fill: #fff16e;
      }

      .cls-5 {
        fill: #f99c15;
      }

      .cls-6 {
        fill: #f2e111;
      }
    </style>
    <linearGradient id="linear-gradient" x1="20" y1="40" x2="20" y2="0" gradientUnits="userSpaceOnUse">
      <stop offset=".17" stop-color="#e5c22e"/>
      <stop offset="1" stop-color="#ff8533"/>
    </linearGradient>
    <linearGradient id="linear-gradient-2" x1="20" y1="40" x2="20" y2="35" gradientUnits="userSpaceOnUse">
      <stop offset="0" stop-color="#ff7712"/>
      <stop offset="1" stop-color="#ff8533"/>
    </linearGradient>
  </defs>
  <g id="Objects">
    <g>
      <path class="cls-3" d="M40,10.01v19.98c0,1.83-.49,3.54-1.35,5.01-1.72,2.99-4.95,5-8.66,5H10.01c-3.71,0-6.94-2.01-8.66-5-.86-1.47-1.35-3.18-1.35-5.01V10.01C0,4.48,4.48,0,10.01,0h19.98c5.53,0,10.01,4.48,10.01,10.01Z"/>
      <g>
        <circle class="cls-6" cx="20" cy="20" r="11.61"/>
        <circle class="cls-4" cx="20" cy="20" r="8.3"/>
      </g>
      <path class="cls-2" d="M38.65,35c-1.72,2.99-4.95,5-8.66,5H10.01c-3.71,0-6.94-2.01-8.66-5h37.3Z"/>
      <path class="cls-1" d="M11.21,35.12c0-.32-.2-.58-.44-.58s-.44-.96-.44-2.14-.26-2.14-.58-2.14-.58.71-.58,1.57-.23,1.57-.52,1.57-.52-.37-.52-.81-.26-.81-.58-.81-.58.63-.58,1.4.49,1.4,1.1,1.4,1.1.47,1.1,1.05.26,1.05.58,1.05.58-.22.58-.49.2-.49.44-.49.44-.26.44-.58Z"/>
      <path class="cls-1" d="M29.82,33.66c0-.32.2-.58.44-.58s.44-.43.44-.97.26-.97.58-.97.58.81.58,1.8.23,1.8.52,1.8.52-.27.52-.59.26-.59.58-.59.58.53.58,1.17-.49,1.17-1.1,1.17-1.1.37-1.1.82-.26.82-.58.82-.58-.75-.58-1.66-.2-1.66-.44-1.66-.44-.26-.44-.58Z"/>
      <ellipse class="cls-1" cx="23.48" cy="34.66" rx=".58" ry="1.36"/>
      <ellipse class="cls-5" cx="17.75" cy="37.85" rx="2.88" ry=".58"/>
      <ellipse class="cls-5" cx="24.08" cy="37.38" rx="1.28" ry=".58"/>
      <ellipse class="cls-5" cx="23.88" cy="37.38" rx="1.28" ry=".58"/>
      <ellipse class="cls-5" cx="30.68" cy="38.52" rx="1.28" ry=".58"/>
    </g>
  </g>
</svg>