<svg width="32" height="32" viewBox="0 0 32 32" fill="none" xmlns="http://www.w3.org/2000/svg">
<g clip-path="url(#clip0_20_1384)">
<path d="M24 0H8C3.58172 0 0 3.58172 0 8V24C0 28.4183 3.58172 32 8 32H24C28.4183 32 32 28.4183 32 24V8C32 3.58172 28.4183 0 24 0Z" fill="#A92896"/>
<path d="M10.0792 21H8.23921L5.5 11.5H7.17396L9.20761 18.9236L11.4073 11.5H12.8737L15.0596 18.9236L17.0932 11.5H18.7672L16.028 21H14.188L12.1405 14.065L10.0792 21ZM25.1442 16.0736C25.9881 16.5079 26.5 17.295 26.5 18.2857C26.5 19.0593 26.2233 19.7107 25.6561 20.2264C25.0889 20.7421 24.411 21 23.5948 21H19.4445V11.5H23.2904C24.079 11.5 24.7569 11.7579 25.2964 12.26C25.8498 12.7621 26.1265 13.3864 26.1265 14.1329C26.1265 14.9607 25.7944 15.5986 25.1442 16.0736ZM23.2904 12.9657H21.0354V15.4629H23.2904C23.996 15.4629 24.5355 14.92 24.5355 14.2143C24.5355 13.5086 23.996 12.9657 23.2904 12.9657ZM21.0354 19.5343H23.5948C24.328 19.5343 24.909 18.9507 24.909 18.2043C24.909 17.4579 24.328 16.8743 23.5948 16.8743H21.0354V19.5343Z" fill="white"/>
</g>
<defs>
<clipPath id="clip0_20_1384">
<rect width="32" height="32" fill="white"/>
</clipPath>
</defs>
</svg>
