<svg width="40" height="40" viewBox="0 0 40 40" fill="none" xmlns="http://www.w3.org/2000/svg">
<g clip-path="url(#clip0_74_8430)">
<path d="M30 0H10C4.47715 0 0 4.47715 0 10V30C0 35.5229 4.47715 40 10 40H30C35.5229 40 40 35.5229 40 30V10C40 4.47715 35.5229 0 30 0Z" fill="#FF0033"/>
<path d="M19.9895 26.7931C19.9895 26.7931 26.2548 26.7931 27.8089 26.3793C28.6839 26.1448 29.342 25.469 29.573 24.6345C30 23.1034 30 19.8828 30 19.8828C30 19.8828 30 16.6828 29.573 15.1655C29.342 14.3103 28.6839 13.6483 27.8089 13.4207C26.2548 13 19.9895 13 19.9895 13C19.9895 13 13.7382 13 12.1911 13.4207C11.3301 13.6483 10.658 14.3103 10.413 15.1655C10 16.6828 10 19.8828 10 19.8828C10 19.8828 10 23.1034 10.413 24.6345C10.658 25.469 11.3301 26.1448 12.1911 26.3793C13.7382 26.7931 19.9895 26.7931 19.9895 26.7931Z" fill="white"/>
<path d="M23.0401 20.2318L17.8677 17.3008V23.1628L23.0401 20.2318Z" fill="#FF0033"/>
</g>
<defs>
<clipPath id="clip0_74_8430">
<rect width="40" height="40" fill="white"/>
</clipPath>
</defs>
</svg>
